<svg width="20" height="20" viewBox="0 0 20 20" fill="none" xmlns="http://www.w3.org/2000/svg">
<g clip-path="url(#clip0_95_5332)">
<path d="M15.3333 8H9.33333C8.59695 8 8 8.59695 8 9.33333V15.3333C8 16.0697 8.59695 16.6667 9.33333 16.6667H15.3333C16.0697 16.6667 16.6667 16.0697 16.6667 15.3333V9.33333C16.6667 8.59695 16.0697 8 15.3333 8Z" stroke="#969696" stroke-linecap="round" stroke-linejoin="round"/>
<path d="M5.33325 12H4.66659C4.31296 12 3.97382 11.8595 3.72378 11.6095C3.47373 11.3594 3.33325 11.0203 3.33325 10.6666V4.66665C3.33325 4.31302 3.47373 3.97389 3.72378 3.72384C3.97382 3.47379 4.31296 3.33331 4.66659 3.33331H10.6666C11.0202 3.33331 11.3593 3.47379 11.6094 3.72384C11.8594 3.97389 11.9999 4.31302 11.9999 4.66665V5.33331" stroke="#969696" stroke-linecap="round" stroke-linejoin="round"/>
</g>
<defs>
<clipPath id="clip0_95_5332">
<rect width="16" height="16" fill="white" transform="translate(2 2)"/>
</clipPath>
</defs>
</svg>
