<svg width="40" height="32" viewBox="0 0 40 32" fill="none" xmlns="http://www.w3.org/2000/svg">
<path d="M29.5617 4.66667C29.1017 3.31733 27.6533 2.34267 25.8342 2.238C23.7042 2.11533 20.5542 2 16.25 2C11.9717 2 8.835 2.114 6.70583 2.236C4.575 2.35733 2.94583 3.66 2.79417 5.36533C2.64167 7.06867 2.5 9.57867 2.5 13C2.5 16.4433 2.645 18.9627 2.7975 20.6667C2.92833 22.122 4.1475 23.2813 5.83333 23.6487" stroke="#0066FF" stroke-width="1.94444" stroke-linecap="round" stroke-linejoin="round"/>
<path d="M10.295 11.3647C10.4467 9.66002 12.075 8.35802 14.2067 8.23602C16.335 8.11336 19.4725 8.00002 23.75 8.00002C28.0275 8.00002 31.1642 8.11402 33.2933 8.23602C35.425 8.35736 37.0533 9.66002 37.205 11.3654C37.3575 13.0687 37.5 15.5787 37.5 19C37.5 22.422 37.3575 24.9314 37.205 26.6354C37.0533 28.34 35.425 29.642 33.2933 29.764C31.1642 29.886 28.0267 30 23.75 30C19.4725 30 16.3358 29.886 14.2058 29.764C12.075 29.6427 10.4475 28.34 10.295 26.6347C10.1417 24.932 10 22.422 10 19C10 15.578 10.1425 13.0687 10.295 11.3647Z" stroke="#0066FF" stroke-width="1.94444" stroke-linecap="round" stroke-linejoin="round"/>
<path d="M37.3714 24.2593C35.4923 22.85 34.1381 21.9113 33.1981 21.2967C32.0831 20.5667 30.6131 20.4607 29.4123 21.1013C28.4873 21.5947 27.2173 22.348 25.5581 23.4873C23.0914 21.6 21.3914 20.414 20.2764 19.684C19.1614 18.954 17.6914 18.8487 16.4906 19.4887C15.1406 20.2087 13.0548 21.4833 10.1006 23.7007" stroke="#0066FF" stroke-width="1.94444" stroke-linecap="round" stroke-linejoin="round"/>
<path d="M27.7773 13.2414C27.7773 13.8267 28.0115 14.388 28.4282 14.8019C28.845 15.2158 29.4102 15.4483 29.9996 15.4483C30.5889 15.4483 31.1542 15.2158 31.5709 14.8019C31.9877 14.388 32.2218 13.8267 32.2218 13.2414C32.2218 12.6561 31.9877 12.0948 31.5709 11.6809C31.1542 11.267 30.5889 11.0345 29.9996 11.0345C29.4102 11.0345 28.845 11.267 28.4282 11.6809C28.0115 12.0948 27.7773 12.6561 27.7773 13.2414Z" stroke="#0066FF" stroke-width="1.94444" stroke-linecap="round" stroke-linejoin="round"/>
</svg>
