<svg width="12" height="12" viewBox="0 0 12 12" fill="none" xmlns="http://www.w3.org/2000/svg">
<g clip-path="url(#clip0_304_1670)">
<path d="M8.40512 9.5C8.35929 9.00133 7.94679 8.74742 7.63237 8.5595C7.53105 8.50341 7.43556 8.43739 7.34729 8.36242C7.28647 8.30595 7.21906 8.25701 7.14654 8.21667C7.0457 8.15158 6.98154 8.11033 6.95404 8.00217C7.06981 8.02368 7.18737 8.03411 7.30512 8.03333C7.84595 8.03333 8.40512 7.6905 8.40512 7.11667C8.39229 6.78588 8.26234 6.47042 8.03845 6.22658V5.19167C8.03845 4.87562 7.9129 4.57251 7.68942 4.34903C7.46594 4.12555 7.16284 4 6.84679 4H6.2702C6.02822 4.00046 5.79236 4.07614 5.59529 4.21655C5.39821 4.35697 5.24966 4.55518 5.1702 4.78375H5.16195C4.96304 4.69208 4.65595 4.74067 4.41579 4.89558C4.28912 4.97411 4.1848 5.08392 4.11288 5.21444C4.04095 5.34496 4.00384 5.49181 4.00512 5.64083C3.99917 5.78543 4.02442 5.92961 4.07915 6.06358C4.13388 6.19755 4.2168 6.31817 4.32229 6.41725C4.5475 6.60361 4.82471 6.71596 5.11612 6.739C5.13117 6.97936 5.12811 7.22051 5.10695 7.46042C5.04645 7.93983 4.86954 8.08925 4.5762 8.33675C4.47537 8.42108 4.3617 8.52008 4.24254 8.63742C4.01612 8.86292 3.99595 9.29558 4.00054 9.5" stroke="#1C1C1C" stroke-linecap="round"/>
<path d="M5.11832 1.75861C5.64405 1.37664 6.35595 1.37664 6.88168 1.75861L10.2369 4.1963C10.7626 4.57827 10.9826 5.25532 10.7818 5.87335L9.50021 9.81763C9.2994 10.4357 8.72347 10.8541 8.07363 10.8541H3.92637C3.27653 10.8541 2.7006 10.4357 2.49979 9.81763L1.21822 5.87336C1.01741 5.25532 1.23739 4.57827 1.76312 4.1963L5.11832 1.75861Z" stroke="#1C1C1C"/>
</g>
<defs>
<clipPath id="clip0_304_1670">
<rect width="12" height="12" fill="white"/>
</clipPath>
</defs>
</svg>
