<svg width="105" height="28" viewBox="0 0 105 28" fill="none" xmlns="http://www.w3.org/2000/svg">
<path d="M27.9698 18.5941V13.3663H25.9985V10.1985H28.0223L28.2323 6.90167H31.9383V10.1985H37.1947V13.3663H31.9383V18.4659C31.9383 19.7795 32.3849 20.3715 33.4104 20.3715C34.436 20.3715 34.6719 19.6505 34.6719 19.3672H37.5105V21.1185C36.9589 22.4836 35.5917 23.5908 33.0954 23.5908C29.8368 23.5908 27.9706 21.7105 27.9706 18.5948L27.9698 18.5941Z" fill="#1C1C1C"/>
<path d="M48.3112 15.7103L46.0508 23.2046H42.4765L38.5081 12.0019V10.1992H42.0824L44.5269 17.9514L46.9189 10.1992H50.1775L52.6479 17.9253L55.0133 10.1992H58.3776V11.9244L54.3042 23.2046H50.7298L48.3119 15.7103H48.3112Z" fill="#1C1C1C"/>
<path d="M59.6382 16.7399C59.6382 12.9287 62.1611 9.81229 66.6293 9.81229C71.0976 9.81229 73.0682 12.4649 73.0682 15.9415C73.0682 16.8428 72.8841 17.5899 72.8841 17.5899H63.6332C63.8699 19.3412 64.9213 20.4744 66.866 20.4744C69.2313 20.4744 69.7046 19.2897 69.7046 19.2897H72.8057V21.0149C72.8057 21.0149 71.5176 23.59 66.7876 23.59C62.0575 23.59 59.6389 20.6026 59.6389 16.7392L59.6382 16.7399ZM69.2572 15.2459C69.2572 14.0097 68.3899 12.9026 66.6027 12.9026C64.8156 12.9026 64.0273 13.8815 63.7116 15.2459H69.2572Z" fill="#1C1C1C"/>
<path d="M74.9595 16.7399C74.9595 12.9287 77.4823 9.81229 81.9506 9.81229C86.4189 9.81229 88.3895 12.4649 88.3895 15.9415C88.3895 16.8428 88.2053 17.5899 88.2053 17.5899H78.9545C79.1911 19.3412 80.2426 20.4744 82.1872 20.4744C84.5526 20.4744 85.0259 19.2897 85.0259 19.2897H88.127V21.0149C88.127 21.0149 86.8389 23.59 82.1089 23.59C77.3788 23.59 74.9602 20.6026 74.9602 16.7392L74.9595 16.7399ZM84.5785 15.2459C84.5785 14.0097 83.7112 12.9026 81.924 12.9026C80.1368 12.9026 79.3486 13.8815 79.0329 15.2459H84.5785Z" fill="#1C1C1C"/>
<path d="M90.3083 16.7146C90.3083 12.8258 92.6471 9.81227 96.3006 9.81227C98.2193 9.81227 99.6383 10.6108 100.585 11.9498V3.88889H104.527V23.2046H100.847L100.611 21.3504C99.7433 22.7155 98.1661 23.5908 96.2214 23.5908C92.4896 23.5908 90.3083 20.5005 90.3083 16.7146ZM100.585 16.6885C100.585 14.7828 99.3233 13.3149 97.4311 13.3149C95.3815 13.3149 94.2775 14.8089 94.2775 16.7146C94.2775 18.6202 95.3815 20.0882 97.4311 20.0882C99.3233 20.0882 100.585 18.6202 100.585 16.6885Z" fill="#1C1C1C"/>
<path d="M0.777832 14.454V20.5723C0.777832 22.5265 2.39419 24.1111 4.38913 24.1111H5.64318V17.2059L0.777832 14.454Z" fill="#1C1C1C"/>
<path d="M0.777832 11.2101V12.3209L7.92427 16.364V24.1111H8.91139V15.8061L0.777832 11.2101Z" fill="#1C1C1C"/>
<path d="M1.38643 7.99008C1.20231 8.2589 1.05591 8.5538 0.952393 8.86827L11.1925 14.6547L11.197 14.6569V17.1704L11.1925 17.1683V24.1111H15.2216C16.9126 24.1111 18.3316 22.9721 18.7242 21.4345L12.1834 17.7291V15.2155L18.8329 18.9819V17.8609L1.38643 7.99008Z" fill="#1C1C1C"/>
<path d="M18.8328 9.95657C18.8328 8.0024 17.2157 6.41776 15.2215 6.41776H4.38833C4.08887 6.41776 3.79902 6.45398 3.521 6.52137L18.8328 15.1844V9.95657Z" fill="#1C1C1C"/>
</svg>
