<svg width="12" height="12" viewBox="0 0 12 12" fill="none" xmlns="http://www.w3.org/2000/svg">
    <path d="M0 5.44977V9.59919C0 10.9245 1.07425 11.9992 2.40012 11.9992H3.23357V7.31612L0 5.44977Z" fill="#1C1C1C" />
    <path d="M0 3.24976V4.00308L4.74961 6.74512V11.9992H5.40567V6.36674L0 3.24976Z" fill="#1C1C1C" />
    <path d="M0.404799 1.06714C0.282434 1.24945 0.185132 1.44945 0.116333 1.66272L6.92207 5.58708L6.92502 5.58855V7.29324L6.92207 7.29176V12.0004H9.59984C10.7237 12.0004 11.6668 11.2279 11.9277 10.1852L7.58058 7.67211V5.96743L12 8.52175V7.76155L0.404799 1.06714Z" fill="#1C1C1C" />
    <path d="M11.9997 2.39962C11.9997 1.07431 10.9249 -0.000396729 9.59954 -0.000396729H2.39968C2.20066 -0.000396729 2.00802 0.0241735 1.82324 0.0698742L11.9997 5.94511V2.39962Z" fill="#1C1C1C" />
</svg>