<svg width="20" height="20" viewBox="0 0 20 20" fill="none" xmlns="http://www.w3.org/2000/svg">
  <path
    d="M15.8333 16.6666H4.16667C3.24619 16.6666 2.5 15.9205 2.5 15V7.49998C2.5 6.5795 3.24619 5.83331 4.16667 5.83331H15.8333C16.7538 5.83331 17.5 6.5795 17.5 7.49998V15C17.5 15.9205 16.7538 16.6666 15.8333 16.6666Z"
    stroke="#1C1C1C" />
  <path
    d="M13.7499 11.6666C13.5198 11.6666 13.3333 11.4801 13.3333 11.25C13.3333 11.0199 13.5198 10.8333 13.7499 10.8333C13.98 10.8333 14.1666 11.0199 14.1666 11.25C14.1666 11.4801 13.98 11.6666 13.7499 11.6666Z"
    fill="#1C1C1C" stroke="#1C1C1C" stroke-linecap="round" stroke-linejoin="round" />
  <path
    d="M15 5.83333V4.66935C15 3.5743 13.962 2.7768 12.9039 3.05895L3.73723 5.5034C3.00764 5.69796 2.5 6.35871 2.5 7.1138V7.5"
    stroke="#1C1C1C" />
</svg>